<svg width="116" height="20" viewBox="0 0 116 20" fill="none" xmlns="http://www.w3.org/2000/svg">
<g clip-path="url(#clip0_656_40670)">
<path d="M22.9062 11.648V6.49748C22.9062 4.96011 23.6643 4.19104 25.1804 4.19104H28.9754L29.7986 4.84206V5.7618H25.2223C24.8129 5.7618 24.6084 5.9646 24.6084 6.37011V11.7754C24.6084 12.1812 24.8129 12.3841 25.2223 12.3841H29.7986V13.3035L28.9754 13.9546H25.1804C23.6642 13.9545 22.9062 13.1858 22.9062 11.648Z" fill="white"/>
<path d="M31.4863 11.7187V6.52576H33.1188V11.8604C33.1188 12.2944 33.3326 12.5113 33.7605 12.5113H36.0625V6.52576H37.695V13.9546H33.6908C32.221 13.9546 31.4863 13.2096 31.4863 11.7187Z" fill="white"/>
<path d="M39.5225 13.4027V12.5111H42.7453C43.1732 12.5111 43.3872 12.2802 43.3872 11.818C43.3872 11.3368 43.2104 11.0635 42.857 10.9973L41.2943 10.7425C40.113 10.5351 39.5225 9.85584 39.5225 8.70483C39.5225 7.25237 40.2571 6.52576 41.7268 6.52576H43.9453L44.6847 7.07762V7.96915H41.7967C41.3593 7.96915 41.1409 8.20042 41.1409 8.66237C41.1409 9.12483 41.3269 9.38898 41.699 9.45474L43.2616 9.70957C44.4336 9.90762 45.0196 10.5918 45.0196 11.7613C45.0196 13.2236 44.2802 13.9546 42.8011 13.9546H40.2619L39.5225 13.4027Z" fill="white"/>
<path d="M46.7773 11.7187V4.19104H48.4098V6.5257H50.9072V7.96909H48.4098V11.8604C48.4098 12.2943 48.6236 12.5112 49.0515 12.5112H51.0467V13.4027L50.3073 13.9546H48.9818C47.512 13.9545 46.7773 13.2095 46.7773 11.7187Z" fill="white"/>
<path d="M52.4834 11.7187V8.7616C52.4834 7.27101 53.2181 6.52576 54.6878 6.52576H56.6412C58.1013 6.52576 58.8316 7.27101 58.8316 8.7616V11.7187C58.8316 13.2096 58.1013 13.9546 56.6412 13.9546H54.6878C53.2181 13.9546 52.4834 13.2096 52.4834 11.7187ZM54.1158 11.8604C54.1158 12.2944 54.3297 12.5112 54.7576 12.5112H56.5574C56.9851 12.5112 57.1992 12.2944 57.1992 11.8604V8.61991C57.1992 8.18618 56.9851 7.96915 56.5574 7.96915H54.7576C54.3297 7.96915 54.1158 8.18618 54.1158 8.61991V11.8604Z" fill="white"/>
<path d="M60.8125 13.9546V6.52576H69.1559C70.616 6.52576 71.3463 7.27101 71.3463 8.7616V13.9546H69.7139V8.61991C69.7139 8.18618 69.4999 7.96923 69.0721 7.96923H66.8956V13.9546H65.2632V7.96923H62.4448V13.9546H60.8125Z" fill="white"/>
<path d="M73.2715 11.7187V8.76152C73.2715 7.27101 74.0062 6.52576 75.4759 6.52576H77.2898C78.7498 6.52576 79.4802 7.27101 79.4802 8.76152V10.8557H74.9039V11.8603C74.9039 12.2943 75.1178 12.5111 75.5458 12.5111H79.2011V13.4027L78.4617 13.9546H75.4759C74.0062 13.9546 73.2715 13.2096 73.2715 11.7187ZM74.9039 9.56821H77.8477V8.61999C77.8477 8.18618 77.6336 7.96923 77.206 7.96923H75.5458C75.1178 7.96923 74.9039 8.18618 74.9039 8.61999V9.56821Z" fill="white"/>
<path d="M81.4053 13.9546V7.44559C81.7402 6.83237 82.3819 6.52576 83.3307 6.52576H84.7957L85.5351 7.07762V7.96923H83.7075C83.3911 7.96923 83.1678 8.04949 83.0377 8.20974V13.9546H81.4053Z" fill="white"/>
<path d="M90.293 11.648V6.49748C90.293 4.96011 91.051 4.19104 92.5672 4.19104H96.3622L97.1853 4.84206V5.7618H92.6091C92.1996 5.7618 91.9951 5.9646 91.9951 6.37011V11.7754C91.9951 12.1812 92.1995 12.3841 92.6091 12.3841H97.1853V13.3035L96.3622 13.9546H92.5672C91.0511 13.9545 90.293 13.1858 90.293 11.648Z" fill="white"/>
<path d="M98.8867 3.5542H100.603V5.23818H98.8867V3.5542ZM98.9284 6.52564H100.561V13.9545H98.9284V6.52564Z" fill="white"/>
<path d="M102.599 11.7187V4.19104H104.231V6.5257H106.728V7.96909H104.231V11.8604C104.231 12.2943 104.445 12.5112 104.873 12.5112H106.868V13.4027L106.129 13.9546H104.803C103.333 13.9545 102.599 13.2095 102.599 11.7187Z" fill="white"/>
<path d="M107.635 6.78059L107.802 6.52576H109.211L111.053 12.5112H111.262L113.104 6.52576H114.513L114.681 6.78059L111.486 16.7847H110.076L109.909 16.5299L110.788 13.9546H109.937L107.635 6.78059Z" fill="white"/>
<path d="M0 13.7772V3.83437C0 1.03208 1.36981 -0.36792 4.11361 -0.36792H11.402L12.7418 0.696741V2.07945H4.14136C3.14498 2.07945 2.6457 2.57496 2.6457 3.56818V14.0433C2.6457 15.0366 3.14498 15.5321 4.14136 15.5321H12.7418V16.9147L11.402 17.9794H4.11361C1.36981 17.9794 0 16.5794 0 13.7772Z" fill="white"/>
<path d="M17.5081 6.64065H5.95369C5.28729 6.64065 4.74707 6.09285 4.74707 5.417C4.74707 4.74116 5.28729 4.19336 5.95369 4.19336H17.5081C18.1745 4.19336 18.7147 4.74116 18.7147 5.417C18.7147 6.09285 18.1745 6.64065 17.5081 6.64065Z" fill="#1554FF"/>
<path d="M17.5889 10.0296H13.0885C12.4221 10.0296 11.8818 9.48168 11.8818 8.806C11.8818 8.13007 12.4221 7.58228 13.0885 7.58228H17.5889C18.2553 7.58228 18.7955 8.13016 18.7955 8.806C18.7955 9.48177 18.2553 10.0296 17.5889 10.0296Z" fill="url(#paint0_linear_656_40670)"/>
<path d="M12.9555 10.0294H5.95369C5.28729 10.0294 4.74707 9.48156 4.74707 8.80588C4.74707 8.12995 5.28729 7.58215 5.95369 7.58215H12.9555C13.6219 7.58215 14.162 8.13003 14.162 8.80588C14.162 9.48164 13.6219 10.0294 12.9555 10.0294Z" fill="#1554FF"/>
<path d="M17.4461 13.4184H11.2125C10.5461 13.4184 10.0059 12.8705 10.0059 12.1948C10.0059 11.5189 10.5461 10.9711 11.2125 10.9711H17.4461C18.1125 10.9711 18.6527 11.5189 18.6527 12.1948C18.6527 12.8705 18.1125 13.4184 17.4461 13.4184Z" fill="url(#paint1_linear_656_40670)"/>
<path d="M10.9367 13.4184H5.95369C5.28729 13.4184 4.74707 12.8705 4.74707 12.1948C4.74707 11.5189 5.28729 10.9711 5.95369 10.9711H10.9367C11.6031 10.9711 12.1432 11.519 12.1432 12.1948C12.1432 12.8705 11.6031 13.4184 10.9367 13.4184Z" fill="#1554FF"/>
</g>
<defs>
<linearGradient id="paint0_linear_656_40670" x1="18.7605" y1="8.79507" x2="14.8522" y2="8.79507" gradientUnits="userSpaceOnUse">
<stop stop-color="#1554FF"/>
<stop offset="0.53529" stop-color="#1554FF" stop-opacity="0.29"/>
<stop offset="1" stop-color="#1554FF" stop-opacity="0"/>
</linearGradient>
<linearGradient id="paint1_linear_656_40670" x1="18.6042" y1="12.2871" x2="12.9762" y2="12.2871" gradientUnits="userSpaceOnUse">
<stop stop-color="#1554FF"/>
<stop offset="0.614583" stop-color="#1554FF" stop-opacity="0.19"/>
<stop offset="0.984375" stop-color="#1554FF" stop-opacity="0"/>
</linearGradient>
<clipPath id="clip0_656_40670">
<rect width="116" height="20" fill="white"/>
</clipPath>
</defs>
</svg>
