<svg width="720" height="260" viewBox="0 0 720 260" fill="none" xmlns="http://www.w3.org/2000/svg">
<g opacity="0.3" clip-path="url(#clip0_395_222134)">
<path d="M485 281L455.673 297.868L-56.2327 4.85262L-26.0121 -12.459L485 281Z" fill="url(#paint0_linear_395_222134)"/>
<path d="M442.827 444.632L413.5 461.5L-200 110.312L-169.779 93L442.827 444.632Z" fill="url(#paint1_linear_395_222134)"/>
<path d="M830.361 80.8066V111.13L207.221 475.96L177 458.5L830.361 80.8066Z" fill="url(#paint2_linear_395_222134)"/>
<path d="M445.388 227.645L417.838 243.715L428.259 249.781L455.958 233.711L445.388 227.645Z" fill="#3F77FF"/>
<path d="M418.5 120.5L307.088 183.556L317.658 189.77L429.219 126.566L418.5 120.5Z" fill="url(#paint3_linear_395_222134)"/>
<path opacity="0.1" d="M127.062 239.14L76 209.844L127.062 180.695L178.125 209.844L127.062 239.14Z" fill="#1E232C"/>
<path d="M161.005 211.175L126.318 231.15V198.746L161.005 178.771V211.175Z" fill="#91B9F6"/>
<path d="M126.318 231.15L91.6313 211.175V178.771L126.318 198.746V231.15Z" fill="#72A9FD"/>
<path d="M126.318 198.749L91.6313 178.774L126.318 158.799L161.005 178.774L126.318 198.749Z" fill="#C8DFFA"/>
<path d="M153.263 178.619L126.317 194.155V103.602L153.263 88.0664V178.619Z" fill="#558CE7"/>
<path d="M126.318 194.155L99.2234 178.619V88.0664L126.318 103.602V194.155Z" fill="#72A9FD"/>
<path d="M126.318 103.605L99.2234 88.0693L126.318 72.5332L153.263 88.0693L126.318 103.605Z" fill="#C8DFFA"/>
<path d="M143.587 88.221L126.318 98.1345V78.1596L143.587 68.2461V88.221Z" fill="#3A8BEB"/>
<path d="M126.318 98.1345L108.9 88.221V68.2461L126.318 78.1596V98.1345Z" fill="#72A9FD"/>
<path d="M126.318 78.157L108.9 68.2436L126.318 58.3301L143.587 68.2436L126.318 78.157Z" fill="#C8DFFA"/>
<path d="M126.318 61.1396L113.812 68.2418L126.318 75.492L138.674 68.2418L126.318 61.1396Z" fill="#72A9FD"/>
<path d="M137.781 68.8337L138.674 68.2418L126.318 61.1396L113.812 68.2418L114.855 68.8337L126.318 62.1754L137.781 68.8337Z" fill="#3A8BEB"/>
<path d="M126.318 219.609L91.6313 199.782V200.67L126.318 220.497L161.005 200.67V199.782L126.318 219.609Z" fill="#3A8BEB"/>
<path d="M126.318 209.254L91.6313 189.427V190.167L126.318 210.141L161.005 190.167V189.427L126.318 209.254Z" fill="#3A8BEB"/>
<path d="M104.137 106.123L102.648 105.383V98.2812L104.137 99.169V106.123Z" fill="#C8DFFA"/>
<path d="M108.454 108.639L106.965 107.751V100.797L108.454 101.685V108.639Z" fill="#C8DFFA"/>
<path d="M112.771 111.155L111.282 110.267V103.312L112.771 104.2V111.155Z" fill="#C8DFFA"/>
<path d="M117.089 113.67L115.6 112.782V105.828L117.089 106.568V113.67Z" fill="#C8DFFA"/>
<path d="M121.555 116.187L119.917 115.299V108.197L121.555 109.085V116.187Z" fill="#C8DFFA"/>
<path d="M104.137 122.696L102.648 121.808V114.706L104.137 115.594V122.696Z" fill="#C8DFFA"/>
<path d="M108.454 125.064L106.965 124.176V117.222L108.454 118.109V125.064Z" fill="#C8DFFA"/>
<path d="M112.771 127.579L111.282 126.692V119.737L112.771 120.625V127.579Z" fill="#C8DFFA"/>
<path d="M117.089 130.095L115.6 129.207V122.253L117.089 123.141V130.095Z" fill="#C8DFFA"/>
<path d="M121.555 132.613L119.917 131.725V124.623L121.555 125.511V132.613Z" fill="#C8DFFA"/>
<path d="M104.137 139.122L102.648 138.234V131.132L104.137 132.02V139.122Z" fill="#C8DFFA"/>
<path d="M108.454 141.489L106.965 140.602V133.647L108.454 134.535V141.489Z" fill="#C8DFFA"/>
<path d="M112.771 144.005L111.282 143.117V136.163L112.771 137.051V144.005Z" fill="#C8DFFA"/>
<path d="M117.089 146.521L115.6 145.633V138.679L117.089 139.566V146.521Z" fill="#C8DFFA"/>
<path d="M121.555 149.039L119.917 148.151V141.049L121.555 141.937V149.039Z" fill="#C8DFFA"/>
<path d="M104.137 155.541L102.648 154.653V147.551L104.137 148.439V155.541Z" fill="#C8DFFA"/>
<path d="M108.454 157.908L106.965 157.169V150.066L108.454 150.954V157.908Z" fill="#C8DFFA"/>
<path d="M112.771 160.424L111.282 159.536V152.582L112.771 153.47V160.424Z" fill="#C8DFFA"/>
<path d="M117.089 162.94L115.6 162.052V155.098L117.089 155.985V162.94Z" fill="#C8DFFA"/>
<path d="M121.555 165.455L119.917 164.568V157.613L121.555 158.353V165.455Z" fill="#C8DFFA"/>
<path d="M104.137 171.967L102.648 171.079V163.977L104.137 164.864V171.967Z" fill="#C8DFFA"/>
<path d="M108.454 174.482L106.965 173.594V166.492L108.454 167.38V174.482Z" fill="#C8DFFA"/>
<path d="M112.771 176.85L111.282 175.962V169.008L112.771 169.896V176.85Z" fill="#C8DFFA"/>
<path d="M117.089 179.365L115.6 178.478V171.523L117.089 172.411V179.365Z" fill="#C8DFFA"/>
<path d="M121.555 181.881L119.917 180.993V174.039L121.555 174.927V181.881Z" fill="#C8DFFA"/>
<path d="M148.5 106.123L149.989 105.383V98.2812L148.5 99.169V106.123Z" fill="#C8DFFA"/>
<path d="M144.183 108.639L145.672 107.751V100.797L144.183 101.685V108.639Z" fill="#C8DFFA"/>
<path d="M139.866 111.155L141.355 110.267V103.312L139.866 104.2V111.155Z" fill="#C8DFFA"/>
<path d="M135.548 113.67L137.037 112.782V105.828L135.548 106.568V113.67Z" fill="#C8DFFA"/>
<path d="M131.082 116.187L132.72 115.299V108.197L131.082 109.085V116.187Z" fill="#C8DFFA"/>
<path d="M148.5 122.696L149.989 121.808V114.706L148.5 115.594V122.696Z" fill="#C8DFFA"/>
<path d="M144.183 125.064L145.672 124.176V117.222L144.183 118.109V125.064Z" fill="#C8DFFA"/>
<path d="M139.866 127.579L141.355 126.692V119.737L139.866 120.625V127.579Z" fill="#C8DFFA"/>
<path d="M135.548 130.095L137.037 129.207V122.253L135.548 123.141V130.095Z" fill="#C8DFFA"/>
<path d="M131.082 132.613L132.72 131.725V124.623L131.082 125.511V132.613Z" fill="#C8DFFA"/>
<path d="M148.5 139.122L149.989 138.234V131.132L148.5 132.02V139.122Z" fill="#C8DFFA"/>
<path d="M144.183 141.489L145.672 140.602V133.647L144.183 134.535V141.489Z" fill="#C8DFFA"/>
<path d="M139.866 144.005L141.355 143.117V136.163L139.866 137.051V144.005Z" fill="#C8DFFA"/>
<path d="M135.548 146.521L137.037 145.633V138.679L135.548 139.566V146.521Z" fill="#C8DFFA"/>
<path d="M131.082 149.039L132.72 148.151V141.049L131.082 141.937V149.039Z" fill="#C8DFFA"/>
<path d="M148.5 155.541L149.989 154.653V147.551L148.5 148.439V155.541Z" fill="#C8DFFA"/>
<path d="M144.183 157.908L145.672 157.169V150.066L144.183 150.954V157.908Z" fill="#C8DFFA"/>
<path d="M139.866 160.424L141.355 159.536V152.582L139.866 153.47V160.424Z" fill="#C8DFFA"/>
<path d="M135.548 162.94L137.037 162.052V155.098L135.548 155.985V162.94Z" fill="#C8DFFA"/>
<path d="M131.082 165.455L132.72 164.568V157.613L131.082 158.353V165.455Z" fill="#C8DFFA"/>
<path d="M148.5 171.967L149.989 171.079V163.977L148.5 164.864V171.967Z" fill="#C8DFFA"/>
<path d="M144.183 174.482L145.672 173.594V166.492L144.183 167.38V174.482Z" fill="#C8DFFA"/>
<path d="M139.866 176.85L141.355 175.962V169.008L139.866 169.896V176.85Z" fill="#C8DFFA"/>
<path d="M135.548 179.365L137.037 178.478V171.523L135.548 172.411V179.365Z" fill="#C8DFFA"/>
<path d="M131.082 181.881L132.72 180.993V174.039L131.082 174.927V181.881Z" fill="#C8DFFA"/>
<path opacity="0.1" d="M236.169 297.647L274.875 275.452L224.706 246.6L186 268.794L236.169 297.647Z" fill="#1E232C"/>
<path d="M235.871 193.04L263.115 177.356L227.832 157.085L200.589 172.769L235.871 193.04Z" fill="#C8DFFA"/>
<path d="M228.13 161.082L257.16 177.801L258.053 177.357L228.13 160.046L205.948 172.623L206.842 173.215L228.13 161.082Z" fill="#C8DFFA"/>
<path d="M228.13 161.082L257.16 177.801L258.053 177.357L228.13 160.046L205.948 172.623L206.842 173.215L228.13 161.082Z" fill="#3A8BEB"/>
<path d="M206.842 173.214L227.981 161.229L257.16 177.801L236.02 189.934L206.842 173.214Z" fill="#72A9FD"/>
<path d="M235.871 289.958L200.589 269.687V172.771L235.871 193.042V289.958Z" fill="#91B9F6"/>
<path d="M263.114 274.42L235.871 289.956V193.04L263.114 177.356V274.42Z" fill="#3A8BEB"/>
<path d="M204.609 183.127L205.204 183.571V197.183L204.609 196.887V183.127Z" fill="#3A8BEB"/>
<path d="M211.159 186.975V200.588L205.204 197.185V183.572L211.159 186.975Z" fill="#C8DFFA"/>
<path d="M221.729 203.099L216.816 205.911V199.104L221.729 196.293V203.099Z" fill="#3A8BEB"/>
<path d="M200.589 190.965L195.677 193.776V187.118L200.589 184.307V190.965Z" fill="#3A8BEB"/>
<path d="M216.816 205.911L195.081 193.482V186.676L216.816 199.105V205.911Z" fill="#72A9FD"/>
<path d="M216.816 198.365L196.421 186.676L200.589 184.309V183.421L195.528 186.38L195.081 186.676L216.816 199.105L217.411 198.809L221.729 196.294L220.984 195.998L216.816 198.365Z" fill="#C8DFFA"/>
<path d="M204.609 203.844L205.204 204.288V217.9L204.609 217.456V203.844Z" fill="#3A8BEB"/>
<path d="M211.159 207.544V221.157L205.204 217.902V204.289L211.159 207.544Z" fill="#C8DFFA"/>
<path d="M221.729 223.816L216.816 226.627V219.821L221.729 217.01V223.816Z" fill="#3A8BEB"/>
<path d="M200.589 211.684L195.677 214.495V207.689L200.589 204.878V211.684Z" fill="#3A8BEB"/>
<path d="M216.816 226.629L195.081 214.052V207.394L216.816 219.822V226.629Z" fill="#72A9FD"/>
<path d="M216.816 219.083L196.421 207.394L200.589 204.878V204.139L195.528 207.098L195.081 207.394L216.816 219.823L217.411 219.527L221.729 217.011L220.984 216.715L216.816 219.083Z" fill="#C8DFFA"/>
<path d="M204.609 224.557L205.204 224.853V238.613L204.609 238.169V224.557Z" fill="#3A8BEB"/>
<path d="M211.159 228.253V241.865L205.204 238.61V224.85L211.159 228.253Z" fill="#C8DFFA"/>
<path d="M221.729 244.38L216.816 247.191V240.533L221.729 237.722V244.38Z" fill="#3A8BEB"/>
<path d="M200.589 232.248L195.677 235.059V228.401L200.589 225.59V232.248Z" fill="#3A8BEB"/>
<path d="M216.816 247.193L195.081 234.764V228.105L216.816 240.534V247.193Z" fill="#72A9FD"/>
<path d="M216.816 239.795L196.421 228.106L200.589 225.59V224.851L195.528 227.81L195.081 228.106L216.816 240.535L217.411 240.091L221.729 237.723L220.984 237.279L216.816 239.795Z" fill="#C8DFFA"/>
<path d="M204.609 245.273L205.204 245.569V259.182L204.609 258.886V245.273Z" fill="#3A8BEB"/>
<path d="M211.159 248.971V262.583L205.204 259.18V245.567L211.159 248.971Z" fill="#C8DFFA"/>
<path d="M221.729 265.098L216.816 267.909V261.251L221.729 258.439V265.098Z" fill="#3A8BEB"/>
<path d="M200.589 252.966L195.677 255.777V249.119L200.589 246.308V252.966Z" fill="#3A8BEB"/>
<path d="M216.816 267.911L195.081 255.482V248.676L216.816 261.253V267.911Z" fill="#72A9FD"/>
<path d="M216.816 260.513L196.421 248.676L200.589 246.308V245.568L195.528 248.528L195.081 248.676L216.816 261.252L217.411 260.808L221.729 258.441L220.984 257.997L216.816 260.513Z" fill="#C8DFFA"/>
<path d="M244.506 193.93L244.059 194.078V203.251L244.506 202.955V193.93Z" fill="#3A8BEB"/>
<path d="M240.189 196.444V205.469L244.059 203.25V194.076L240.189 196.444Z" fill="#C8DFFA"/>
<path d="M251.8 189.643L251.503 189.939V198.964L251.8 198.816V189.643Z" fill="#3A8BEB"/>
<path d="M247.483 192.155V201.329L251.503 198.961V189.936L247.483 192.155Z" fill="#C8DFFA"/>
<path d="M259.244 185.497L258.797 185.645V194.819L259.244 194.523V185.497Z" fill="#3A8BEB"/>
<path d="M254.927 187.863V197.037L258.797 194.817V185.644L254.927 187.863Z" fill="#C8DFFA"/>
<path d="M244.506 214.494L244.059 214.79V223.964L244.506 223.668V214.494Z" fill="#3A8BEB"/>
<path d="M240.189 217.007V226.18L244.059 223.961V214.787L240.189 217.007Z" fill="#C8DFFA"/>
<path d="M251.8 210.355L251.503 210.503V219.677L251.8 219.529V210.355Z" fill="#3A8BEB"/>
<path d="M247.483 212.869V221.895L251.503 219.676V210.502L247.483 212.869Z" fill="#C8DFFA"/>
<path d="M259.244 206.062L258.797 206.358V215.532L259.244 215.236V206.062Z" fill="#3A8BEB"/>
<path d="M254.927 208.576V217.75L258.797 215.53V206.356L254.927 208.576Z" fill="#C8DFFA"/>
<path d="M244.506 235.213L244.059 235.509V244.535L244.506 244.387V235.213Z" fill="#3A8BEB"/>
<path d="M240.189 237.725V246.899L244.059 244.532V235.506L240.189 237.725Z" fill="#C8DFFA"/>
<path d="M251.8 231.072L251.503 231.22V240.394L251.8 240.098V231.072Z" fill="#3A8BEB"/>
<path d="M247.483 233.438V242.612L251.503 240.392V231.219L247.483 233.438Z" fill="#C8DFFA"/>
<path d="M259.244 226.779L258.797 227.075V236.101L259.244 235.953V226.779Z" fill="#3A8BEB"/>
<path d="M254.927 229.292V238.317L258.797 236.098V227.072L254.927 229.292Z" fill="#C8DFFA"/>
<path d="M244.506 255.924L244.059 256.072V265.245L244.506 265.098V255.924Z" fill="#3A8BEB"/>
<path d="M240.189 258.438V267.463L244.059 265.244V256.07L240.189 258.438Z" fill="#C8DFFA"/>
<path d="M251.8 251.638L251.503 251.934V261.107L251.8 260.811V251.638Z" fill="#3A8BEB"/>
<path d="M247.483 254.151V263.325L251.503 261.105V251.932L247.483 254.151Z" fill="#C8DFFA"/>
<path d="M259.244 247.492L258.797 247.64V256.814L259.244 256.518V247.492Z" fill="#3A8BEB"/>
<path d="M254.927 250.006V259.032L258.797 256.812V247.639L254.927 250.006Z" fill="#C8DFFA"/>
<path opacity="0.1" d="M545.726 236.967L467.569 198.349L440.773 174.083L380.332 209.002L414.274 228.977L439.135 214.773L512.379 256.794L545.726 236.967Z" fill="#1E232C"/>
<path d="M439.135 209.152L415.167 222.912V195.391L439.135 181.631V209.152Z" fill="#3A8BEB"/>
<path d="M415.167 222.912L391.199 209.152V181.631L415.167 195.391V222.912Z" fill="#72A9FD"/>
<path d="M511.189 250.433L439.136 209.152V181.631L511.189 222.912V250.433Z" fill="#72A9FD"/>
<path d="M511.189 222.915L439.136 181.634L463.252 167.873L535.157 209.155L511.189 222.915Z" fill="#C8DFFA"/>
<path d="M535.157 236.671L511.189 250.432V222.911L535.157 209.15V236.671Z" fill="#3A8BEB"/>
<path d="M415.167 195.393L391.199 181.632L439.135 154.111L463.252 167.872L415.167 195.393Z" fill="#C8DFFA"/>
<path d="M511.188 232.529L530.988 221.579V218.028L511.188 228.978V232.529Z" fill="#C8DFFA"/>
<path d="M530.094 218.472V222.023L511.188 232.529V233.564L530.988 222.615V221.579V218.028L530.094 218.472Z" fill="#3A8BEB"/>
<path d="M511.188 228.979L444.197 190.509V194.06L511.188 232.53V228.979Z" fill="#C8DFFA"/>
<path d="M445.09 194.652V190.953L444.197 190.509V194.06V195.096L511.188 233.566V232.53L445.09 194.652Z" fill="#3A8BEB"/>
<path d="M511.188 242.739L530.988 231.789V228.238L511.188 239.188V242.739Z" fill="#C8DFFA"/>
<path d="M530.094 228.83V232.381L511.188 242.739V243.774L530.988 232.825V231.789V228.238L530.094 228.83Z" fill="#3A8BEB"/>
<path d="M511.188 239.187L444.197 200.864V204.415L511.188 242.738V239.187Z" fill="#C8DFFA"/>
<path d="M445.09 204.859V201.308L444.197 200.864V204.415V205.451L511.188 243.773V242.738L445.09 204.859Z" fill="#3A8BEB"/>
<path d="M432.287 213.149L422.611 218.623V198.353L432.287 192.878V213.149Z" fill="#C8DFFA"/>
<path d="M430.65 193.766V214.037L432.287 213.149V192.878L430.65 193.766Z" fill="#3A8BEB"/>
<path d="M394.921 191.84V202.641L396.112 203.381V192.58L394.921 191.84Z" fill="#3A8BEB"/>
<path d="M410.85 201.013L396.112 192.579V203.38L410.85 211.814V201.013Z" fill="#C8DFFA"/>
<path d="M415.168 174.236L405.342 179.859L415.168 185.481L425.142 179.859L415.168 174.236Z" fill="#72A9FD"/>
<path d="M425.142 179.859V181.043L415.168 186.814V185.482L425.142 179.859Z" fill="#3A8BEB"/>
<path d="M405.342 179.859V181.043L415.168 186.814V185.482L405.342 179.859Z" fill="#305CB6"/>
<path d="M463.848 172.16L447.323 181.63L510.89 218.028L527.117 208.411L463.848 172.16Z" fill="#72A9FD"/>
<path d="M525.628 209.003L527.117 208.411L463.848 172.16L447.323 181.63L448.514 182.37L463.848 173.64L525.628 209.003Z" fill="#3A8BEB"/>
<path d="M599.405 261.615L564.421 241.493L609.826 215.451L644.959 235.574L599.405 261.615Z" fill="#98BBFF"/>
<path d="M633.943 236.607L636.027 235.424L609.081 220.184L573.055 240.898L575.139 242.082L609.081 222.551L633.943 236.607Z" fill="#3A8BEB"/>
<path d="M633.943 236.609L609.081 222.553L575.139 242.084L599.703 256.14L633.943 236.609Z" fill="#72A9FD"/>
<path d="M599.405 325.241L644.959 299.2V235.576L599.405 261.618V325.241Z" fill="#3A8BEB"/>
<path d="M564.421 305.117L599.405 325.24V261.616L564.421 241.493V305.117Z" fill="#72A9FD"/>
<path d="M624.266 247.408V311.032L627.095 309.404V245.78L624.266 247.408Z" fill="#C8DFFA"/>
<path d="M633.496 242.083V305.706L636.325 304.079V240.455L633.496 242.083Z" fill="#C8DFFA"/>
<path d="M615.483 252.439V316.063L618.312 314.435V250.812L615.483 252.439Z" fill="#C8DFFA"/>
<path d="M615.483 252.439V316.063L618.312 314.435V250.812L615.483 252.439Z" fill="#C8DFFA"/>
<path d="M606.7 257.469V321.093L609.528 319.466V255.842L606.7 257.469Z" fill="#C8DFFA"/>
<path d="M573.502 261.173L568.887 258.51V253.627L573.502 256.29V261.173Z" fill="#C8DFFA"/>
<path d="M583.178 266.798L578.414 263.986V259.104L583.178 261.767V266.798Z" fill="#C8DFFA"/>
<path d="M60.405 294.164L25.4207 274.041L70.8259 248L105.959 268.123L60.405 294.164Z" fill="#98BBFF"/>
<path d="M94.9426 269.156L97.0268 267.973L70.0814 252.732L34.0549 273.447L36.1391 274.631L70.0814 255.1L94.9426 269.156Z" fill="#3A8BEB"/>
<path d="M94.9426 269.158L70.0814 255.102L36.1392 274.633L60.7026 288.689L94.9426 269.158Z" fill="#72A9FD"/>
<path d="M472.242 279.967L439.938 261.62L472.093 242.977L504.547 261.324L472.242 279.967Z" fill="#C8DFFA"/>
<path d="M457.951 254.517L447.977 260.287L457.951 265.91L467.925 260.139L457.951 254.517Z" fill="#72A9FD"/>
<path opacity="0.1" d="M572.425 196.869C561.111 203.379 542.8 203.379 531.486 196.869C520.171 190.358 520.171 179.853 531.486 173.343C542.8 166.832 561.111 166.832 572.425 173.343C583.739 179.853 583.739 190.358 572.425 196.869Z" fill="#1E232C"/>
<path d="M528.21 150.258V183.993C528.21 187.544 530.592 190.947 535.207 193.611C544.437 198.937 559.473 198.937 568.703 193.611C573.318 190.947 575.7 187.544 575.7 183.993V150.258H528.21Z" fill="url(#paint4_linear_395_222134)"/>
<path d="M552.03 163.874C565.102 163.874 575.7 157.779 575.7 150.261C575.7 142.743 565.102 136.648 552.03 136.648C538.957 136.648 528.359 142.743 528.359 150.261C528.359 157.779 538.957 163.874 552.03 163.874Z" fill="#C8DFFA"/>
<path d="M532.974 73.9141V148.487C532.974 151.298 534.761 154.11 538.483 156.181C545.926 160.472 557.836 160.472 565.279 156.181C569.001 154.11 570.787 151.298 570.787 148.487V73.9141H532.974Z" fill="url(#paint5_linear_395_222134)"/>
<path d="M565.428 81.6063C557.984 85.8972 546.075 85.8972 538.631 81.6063C531.188 77.3154 531.188 70.5091 538.631 66.2182C546.075 61.9273 557.984 61.9273 565.428 66.2182C572.722 70.5091 572.722 77.4633 565.428 81.6063Z" fill="#C8DFFA"/>
<path d="M542.056 69.9189C547.564 66.8117 556.496 66.8117 561.855 69.9189C564.237 71.2506 565.577 73.0261 565.875 74.8017C566.321 72.4343 564.981 70.0669 561.855 68.2913C556.347 65.1841 547.415 65.1841 542.056 68.2913C538.929 70.0669 537.589 72.4343 538.036 74.8017C538.334 73.0261 539.674 71.2506 542.056 69.9189Z" fill="#3A8BEB"/>
<path d="M542.056 79.6867C547.564 82.7939 556.496 82.7939 561.855 79.6867C564.237 78.3551 565.577 76.5795 565.875 74.804C565.577 73.0284 564.237 71.2529 561.855 69.9212C556.347 66.814 547.415 66.814 542.056 69.9212C539.674 71.2529 538.334 73.0284 538.036 74.804C538.334 76.5795 539.674 78.3551 542.056 79.6867Z" fill="#72A9FD"/>
<path d="M565.428 98.3238C557.984 102.615 545.926 102.615 538.482 98.3238C535.207 96.4003 533.272 93.885 532.974 91.5176C532.528 94.6248 534.463 97.732 538.482 100.099C545.926 104.39 557.984 104.39 565.428 100.099C569.447 97.732 571.382 94.6248 570.936 91.5176C570.638 94.0329 568.703 96.4003 565.428 98.3238Z" fill="#3A8BEB"/>
<path d="M565.428 117.705C557.984 121.996 545.926 121.996 538.482 117.705C535.207 115.781 533.272 113.266 532.974 110.898C532.528 114.006 534.463 117.113 538.482 119.48C545.926 123.771 557.984 123.771 565.428 119.48C569.447 117.113 571.382 114.006 570.936 110.898C570.638 113.266 568.703 115.781 565.428 117.705Z" fill="#3A8BEB"/>
<path d="M565.428 136.945C557.984 141.236 545.926 141.236 538.482 136.945C535.207 135.021 533.272 132.506 532.974 130.139C532.528 133.246 534.463 136.353 538.482 138.72C545.926 143.011 557.984 143.011 565.428 138.72C569.447 136.353 571.382 133.246 570.936 130.139C570.638 132.654 568.703 135.021 565.428 136.945Z" fill="#3A8BEB"/>
<path opacity="0.1" d="M371.846 309.622L417.698 283.285L358.299 249.254L312.447 275.443L371.846 309.622Z" fill="#1E232C"/>
<path d="M371.995 304.149L321.23 275V246.443L371.995 275.592V304.149Z" fill="#72A9FD"/>
<path d="M399.983 288.167L371.995 304.147V275.59L399.983 259.462V288.167Z" fill="#3A8BEB"/>
<path d="M371.995 280.919L321.23 251.771V249.699L371.995 278.848V280.919Z" fill="#3A8BEB"/>
<path d="M349.218 230.312L321.23 246.44L371.995 275.589L399.982 259.461L349.218 230.312Z" fill="#98BBFF"/>
<path d="M391.348 260.353L392.687 259.465L348.622 234.312L327.929 246.149L329.269 246.888L348.622 235.791L391.348 260.353Z" fill="#3A8BEB"/>
<path d="M391.347 260.351L348.622 235.789L329.269 246.886L371.994 271.448L391.347 260.351Z" fill="#72A9FD"/>
<path opacity="0.1" d="M637.096 163.882L678.082 140.502L624.986 110.291L584 133.54L637.096 163.882Z" fill="#1E232C"/>
<path d="M638.337 157.553L595.909 133.287V109.317L638.337 133.731V157.553Z" fill="#72A9FD"/>
<path d="M661.858 144.236L638.337 157.552V133.73L661.858 120.266V144.236Z" fill="#3A8BEB"/>
<path d="M619.282 96L595.909 109.465L638.337 133.73L661.858 120.266L619.282 96Z" fill="#98BBFF"/>
<path d="M619.877 99.2549L603.501 108.577L604.543 109.168L604.99 109.464L638.337 128.551L653.224 120.118L653.67 119.822L654.712 119.23L619.877 99.2549Z" fill="#72A9FD"/>
<path d="M654.712 119.228V120.855L638.337 130.325V128.549L654.712 119.228Z" fill="#326CAF"/>
<path d="M638.337 130.33V128.554L603.501 108.579V110.355L638.337 130.33Z" fill="#3A8BEB"/>
<path d="M656.052 123.521L654.861 124.113V148.083L656.052 147.491L656.201 147.343V123.373L656.052 123.521Z" fill="#C8DFFA"/>
<path d="M651.438 126.183V150.153L652.48 149.561L652.778 149.413V125.443L652.48 125.591L651.438 126.183Z" fill="#C8DFFA"/>
<path d="M648.162 128.108V152.078L649.204 151.339L649.502 151.191V127.221L649.204 127.517L648.162 128.108Z" fill="#C8DFFA"/>
<path d="M644.738 130.031V153.853L645.929 153.261L646.227 153.113V129.144L645.929 129.292L644.738 130.031Z" fill="#C8DFFA"/>
<path d="M602.459 121.893L599.333 120.118V117.011L602.459 118.638V121.893Z" fill="#C8DFFA"/>
<path d="M608.563 125.447L605.585 123.672V120.564L608.563 122.192V125.447Z" fill="#C8DFFA"/>
<path d="M614.815 128.996L611.689 127.22V124.113L614.815 125.741V128.996Z" fill="#C8DFFA"/>
<path d="M602.459 128.551L599.333 126.776V123.521L602.459 125.296V128.551Z" fill="#C8DFFA"/>
<path d="M608.563 132.105L605.585 130.329V127.074L608.563 128.85V132.105Z" fill="#C8DFFA"/>
<path d="M614.815 135.652L611.689 133.876V130.621L614.815 132.397V135.652Z" fill="#C8DFFA"/>
<path d="M620.919 132.544L617.793 130.769V127.514L620.919 129.289V132.544Z" fill="#C8DFFA"/>
<path d="M627.023 136.097L624.045 134.322V131.066L627.023 132.842V136.097Z" fill="#C8DFFA"/>
<path d="M633.275 139.651L630.149 137.875V134.62L633.275 136.396V139.651Z" fill="#C8DFFA"/>
<path d="M620.919 139.205L617.793 137.43V134.175L620.919 135.95V139.205Z" fill="#C8DFFA"/>
<path d="M627.023 142.759L624.045 140.984V137.729L627.023 139.504V142.759Z" fill="#C8DFFA"/>
<path d="M633.275 146.306L630.149 144.531V141.275L633.275 143.051V146.306Z" fill="#C8DFFA"/>
<path opacity="0.1" d="M310.476 161.006L344.626 141.489L295.839 113.486L261.201 132.761L310.476 161.006Z" fill="#1E232C"/>
<path d="M310.231 155.917L336.089 141.127V115.307L310.231 130.096V155.917Z" fill="#3A8BEB"/>
<path d="M271.324 133.609L310.232 155.914V130.093L271.324 107.788V133.609Z" fill="#72A9FD"/>
<path d="M297.059 93L336.089 115.305L310.232 130.095L271.324 107.789L297.059 93Z" fill="#C8DFFA"/>
<path d="M335.479 135.92L310.232 150.345L271.812 128.404L271.324 128.04V128.525L310.232 150.83L336.089 136.041V135.556L335.479 135.92Z" fill="#C8DFFA"/>
<path d="M335.479 130.946L310.232 145.372L271.812 123.43L271.324 123.066V123.551L310.232 145.857L336.089 131.067V130.582L335.479 130.946Z" fill="#C8DFFA"/>
<path d="M335.479 125.979L310.232 140.405L271.812 118.463L271.324 118.1V118.585L310.232 140.89L336.089 126.1V125.616L335.479 125.979Z" fill="#C8DFFA"/>
<path d="M335.479 121.007L310.232 135.432L271.812 113.369L271.324 113.127V113.612L310.232 135.917L336.089 121.128V120.643L335.479 121.007Z" fill="#C8DFFA"/>
<path d="M308.524 125.733L279.008 108.761L298.767 97.4873L328.283 114.337L308.524 125.733ZM280.837 108.761L308.524 124.642L326.575 114.337L298.767 98.4571L280.837 108.761Z" fill="#3A8BEB"/>
<path opacity="0.1" d="M700.771 261.349C695.114 264.604 686.181 264.604 680.524 261.349C674.867 258.094 674.867 252.915 680.524 249.66C686.181 246.405 695.114 246.405 700.771 249.66C706.279 252.915 706.279 258.242 700.771 261.349Z" fill="#1E232C"/>
<path d="M683.502 178.929V254.39C683.502 255.425 684.246 256.461 685.586 257.349C688.415 258.976 692.881 258.976 695.709 257.349C697.049 256.609 697.793 255.573 697.793 254.39V178.929H683.502Z" fill="url(#paint6_linear_395_222134)"/>
<path d="M712.085 188.547L690.648 200.828V180.705L717.146 165.465L712.085 188.547Z" fill="#3A8BEB"/>
<path d="M690.648 180.707L664 165.466L690.648 152.594L717.146 165.466L690.648 180.707Z" fill="#72A9FD"/>
<path d="M669.062 188.547L690.648 200.828V180.705L664 165.465L669.062 188.547Z" fill="#376DD7"/>
<path d="M671.89 185.739L686.628 194.321V183.224L669.657 173.458L671.89 185.739Z" fill="#C8DFFA"/>
<path d="M709.554 185.739L694.816 194.321V183.224L711.787 173.458L709.554 185.739Z" fill="#C8DFFA"/>
<path opacity="0.1" d="M23.4278 133.82L87.5906 170.663L45.1628 194.929L-19 158.234L23.4278 133.82Z" fill="#1E232C"/>
<path d="M44.4182 189.014L78.6582 169.335V139.742L44.4182 159.421V189.014Z" fill="#72A9FD"/>
<path d="M-7.38818 159.272L44.4185 189.013V159.42L-7.38818 129.68V159.272Z" fill="#3A8BEB"/>
<path d="M26.8518 110L78.6585 139.74L44.4185 159.419L-7.38818 129.679L26.8518 110Z" fill="#C8DFFA"/>
<path d="M60.6451 133.972L69.5773 139.002L60.6451 144.181L51.7129 139.002L60.6451 133.972Z" fill="#72A9FD"/>
<path d="M51.7129 139.003V140.335L60.645 145.513V144.182L51.7129 139.003Z" fill="#3A8BEB"/>
<path d="M69.5775 139.003V140.335L60.6453 145.513V144.182L69.5775 139.003Z" fill="#305CB6"/>
<path d="M3.33034 130.711L1.99048 129.823L20.7481 119.17L46.2048 133.67L44.7161 134.558L20.7481 120.798L3.33034 130.711Z" fill="#3A8BEB"/>
<path d="M3.33008 130.713L20.7478 120.8L44.7158 134.56L27.4469 144.474L3.33008 130.713Z" fill="#72A9FD"/>
<path d="M26.7029 178.802L36.6771 184.572V163.562L26.7029 157.791V178.802Z" fill="#C8DFFA"/>
<path d="M28.3405 158.827V179.689L26.7029 178.802V157.791L28.3405 158.827Z" fill="#3A8BEB"/>
<path d="M-2.32666 156.166L18.5151 168.151V154.243L-2.32666 142.258V156.166Z" fill="#C8DFFA"/>
<path d="M72.5551 151.575V164.892L71.0664 165.78V152.463L72.5551 151.575Z" fill="#3A8BEB"/>
<path d="M52.9043 162.966L71.0664 152.461V165.778L52.9043 176.135V162.966Z" fill="#C8DFFA"/>
<path d="M176.848 168.432C176.848 168.432 178.337 160.59 170 161.034C170 161.034 170.149 169.764 176.848 168.432Z" fill="#C5DBFF"/>
<path d="M182.654 171.385C182.654 171.385 180.123 166.207 187.864 164.579C187.715 164.579 188.609 171.977 182.654 171.385Z" fill="#C5DBFF"/>
<path d="M184.738 156C184.738 156 188.906 164.878 181.016 166.505C181.016 166.357 175.508 159.995 184.738 156Z" fill="#8CB9FF"/>
<path d="M180.421 175.53H180.719C180.719 175.382 180.719 175.086 180.719 174.938C180.57 173.311 180.57 171.683 180.719 170.056C180.867 168.428 181.165 166.8 181.463 165.321C181.612 164.581 181.761 163.693 182.058 162.953C182.207 162.214 182.505 161.326 182.654 160.586C182.058 162.066 181.612 163.693 181.314 165.321C181.165 166.061 181.016 166.948 180.867 167.688C180.719 168.428 180.719 169.316 180.57 170.056C180.57 170.795 180.421 171.683 180.421 172.571C180.421 173.459 180.421 174.198 180.57 175.086C180.421 175.086 180.421 175.234 180.421 175.53Z" fill="#0052D2"/>
<path d="M174.168 164.288L174.615 164.88C174.764 165.028 174.913 165.176 175.062 165.472C175.211 165.62 175.359 165.768 175.359 166.064L175.657 166.656C175.806 166.804 175.955 167.1 175.955 167.247L176.253 167.839C176.401 167.987 176.401 168.283 176.55 168.431C176.699 168.875 176.997 169.171 177.146 169.615L177.741 170.799L177.89 171.094L178.039 171.39L178.337 171.982C178.635 172.87 178.932 173.61 179.23 174.498L179.379 174.794L179.528 175.089L179.677 175.681V175.829H179.974L179.677 174.942L179.528 174.646L179.379 174.35C179.081 173.462 178.783 172.574 178.486 171.834L178.188 171.242L178.039 170.947L177.89 170.651L177.295 169.467C177.146 169.023 176.848 168.727 176.699 168.283C176.55 168.135 176.55 167.839 176.401 167.691L176.104 167.099C175.955 166.952 175.806 166.656 175.806 166.508L175.359 165.916C175.211 165.768 175.062 165.62 174.913 165.324C174.764 165.176 174.615 165.028 174.466 164.732L174.168 164.288L173.871 163.696C173.573 163.4 173.275 163.105 172.829 162.809C173.126 163.105 173.424 163.4 173.722 163.696L174.168 164.288Z" fill="#0052D2"/>
<path d="M181.612 175.828V175.532L181.761 175.089L181.91 174.349L182.059 173.609C182.356 172.573 182.654 171.537 183.101 170.65C183.398 170.206 183.547 169.762 183.845 169.318C184.143 168.874 184.44 168.43 184.887 167.986C184.44 168.282 184.143 168.726 183.845 169.17C183.696 169.318 183.547 169.614 183.398 169.91C183.25 170.206 183.101 170.354 182.952 170.65C182.505 171.537 182.059 172.573 181.761 173.609L181.612 174.349L181.463 175.089L181.314 175.532V175.976H181.612V175.828Z" fill="#0052D2"/>
<path opacity="0.1" d="M184.887 178.049C182.356 179.529 178.337 179.529 175.955 178.049C173.424 176.569 173.424 174.35 175.955 172.87C178.486 171.391 182.505 171.391 184.887 172.87C187.418 174.35 187.418 176.717 184.887 178.049Z" fill="#1E232C"/>
<path d="M589.848 156.432C589.848 156.432 591.337 148.59 583 149.034C583 149.034 583.149 157.764 589.848 156.432Z" fill="#C5DBFF"/>
<path d="M595.654 159.385C595.654 159.385 593.123 154.207 600.864 152.579C600.715 152.579 601.609 159.977 595.654 159.385Z" fill="#C5DBFF"/>
<path d="M597.738 144C597.738 144 601.906 152.878 594.016 154.505C594.016 154.357 588.508 147.995 597.738 144Z" fill="#8CB9FF"/>
<path d="M593.421 163.53H593.719C593.719 163.382 593.719 163.086 593.719 162.938C593.57 161.311 593.57 159.683 593.719 158.056C593.867 156.428 594.165 154.8 594.463 153.321C594.612 152.581 594.761 151.693 595.058 150.953C595.207 150.214 595.505 149.326 595.654 148.586C595.058 150.066 594.612 151.693 594.314 153.321C594.165 154.061 594.016 154.948 593.867 155.688C593.718 156.428 593.718 157.316 593.57 158.056C593.57 158.795 593.421 159.683 593.421 160.571C593.421 161.459 593.421 162.198 593.57 163.086C593.421 163.086 593.421 163.234 593.421 163.53Z" fill="#0052D2"/>
<path d="M587.168 152.288L587.615 152.88C587.764 153.028 587.913 153.176 588.062 153.472C588.211 153.62 588.359 153.768 588.359 154.064L588.657 154.656C588.806 154.804 588.955 155.1 588.955 155.247L589.253 155.839C589.401 155.987 589.401 156.283 589.55 156.431C589.699 156.875 589.997 157.171 590.146 157.615L590.741 158.799L590.89 159.094L591.039 159.39L591.337 159.982C591.635 160.87 591.932 161.61 592.23 162.498L592.379 162.794L592.528 163.089L592.677 163.681V163.829H592.974L592.677 162.942L592.528 162.646L592.379 162.35C592.081 161.462 591.783 160.574 591.486 159.834L591.188 159.242L591.039 158.947L590.89 158.651L590.295 157.467C590.146 157.023 589.848 156.727 589.699 156.283C589.55 156.135 589.55 155.839 589.401 155.691L589.104 155.099C588.955 154.952 588.806 154.656 588.806 154.508L588.359 153.916C588.211 153.768 588.062 153.62 587.913 153.324C587.764 153.176 587.615 153.028 587.466 152.732L587.168 152.288L586.871 151.696C586.573 151.4 586.275 151.105 585.829 150.809C586.126 151.105 586.424 151.4 586.722 151.696L587.168 152.288Z" fill="#0052D2"/>
<path d="M594.612 163.828V163.532L594.761 163.089L594.91 162.349L595.058 161.609C595.356 160.573 595.654 159.537 596.101 158.65C596.398 158.206 596.547 157.762 596.845 157.318C597.143 156.874 597.44 156.43 597.887 155.986C597.44 156.282 597.143 156.726 596.845 157.17C596.696 157.318 596.547 157.614 596.398 157.91C596.249 158.206 596.101 158.354 595.952 158.65C595.505 159.537 595.058 160.573 594.761 161.609L594.612 162.349L594.463 163.089L594.314 163.532V163.976H594.612V163.828Z" fill="#0052D2"/>
<path opacity="0.1" d="M597.887 166.049C595.356 167.529 591.337 167.529 588.955 166.049C586.424 164.569 586.424 162.35 588.955 160.87C591.486 159.391 595.505 159.391 597.887 160.87C600.418 162.35 600.418 164.717 597.887 166.049Z" fill="#1E232C"/>
<path opacity="0.1" d="M663.63 237.266L656.633 233.271L663.63 229.276L670.627 233.271L663.63 237.266Z" fill="#1E232C"/>
<path d="M663.63 234.161L662.737 233.57V225.136L663.63 225.58V234.161Z" fill="#70B1FF"/>
<path d="M664.523 233.57L663.63 234.161V225.58L664.523 225.136V233.57Z" fill="#8CB9FF"/>
<path d="M663.63 231.646L657.378 228.095L663.63 205.457V231.646Z" fill="#C5DBFF"/>
<path d="M669.734 228.095L663.63 231.646V205.457L669.734 228.095Z" fill="#8CB9FF"/>
<path opacity="0.1" d="M295.997 252.809L289 248.814L295.997 244.819L302.994 248.814L295.997 252.809Z" fill="#1E232C"/>
<path d="M295.997 249.705L295.104 249.114V240.68L295.997 241.124V249.705Z" fill="#70B1FF"/>
<path d="M296.89 249.114L295.997 249.705V241.124L296.89 240.68V249.114Z" fill="#8CB9FF"/>
<path d="M295.997 247.189L289.893 243.638L295.997 221V247.189Z" fill="#C5DBFF"/>
<path d="M302.101 243.638L295.997 247.189V221L302.101 243.638Z" fill="#8CB9FF"/>
<path opacity="0.1" d="M66.9969 203.809L60 199.814L66.9969 195.819L73.9937 199.814L66.9969 203.809Z" fill="#1E232C"/>
<path d="M66.997 200.705L66.1038 200.114V191.68L66.997 192.124V200.705Z" fill="#70B1FF"/>
<path d="M67.89 200.114L66.9968 200.705V192.124L67.89 191.68V200.114Z" fill="#8CB9FF"/>
<path d="M66.997 198.189L60.8933 194.638L66.997 172V198.189Z" fill="#C5DBFF"/>
<path d="M73.1005 194.638L66.9968 198.189V172L73.1005 194.638Z" fill="#8CB9FF"/>
<path opacity="0.1" d="M503.971 161.269L498.612 158.161L503.971 155.202L509.33 158.161L503.971 161.269Z" fill="#1E232C"/>
<path d="M503.971 158.897L503.227 158.453V151.942L503.971 152.386V158.897Z" fill="#70B1FF"/>
<path d="M504.716 158.453L503.971 158.897V152.386L504.716 151.942V158.453Z" fill="#8CB9FF"/>
<path d="M503.971 156.975L499.208 154.312L503.971 137V156.975Z" fill="#C5DBFF"/>
<path d="M508.735 154.312L503.971 156.975V137L508.735 154.312Z" fill="#8CB9FF"/>
<path opacity="0.1" d="M492.359 167.778L487 164.671L492.359 161.712L497.57 164.671L492.359 167.778Z" fill="#1E232C"/>
<path d="M492.359 165.406L491.615 164.962V158.452L492.359 158.896V165.406Z" fill="#70B1FF"/>
<path d="M492.955 164.962L492.359 165.406V158.896L492.955 158.452V164.962Z" fill="#8CB9FF"/>
<path d="M492.359 163.486L487.596 160.822L492.359 143.511V163.486Z" fill="#C5DBFF"/>
<path d="M496.974 160.822L492.359 163.486V143.511L496.974 160.822Z" fill="#8CB9FF"/>
<path opacity="0.1" d="M22.2463 267.151L15.1006 263.008L22.2463 258.865L29.5409 263.008L22.2463 267.151Z" fill="#1E232C"/>
<path d="M22.2464 264.047L21.2043 263.455V253.542L22.2464 254.134V264.047Z" fill="#70B1FF"/>
<path d="M23.2887 263.455L22.2466 264.047V254.134L23.2887 253.542V263.455Z" fill="#8CB9FF"/>
<path d="M27.3079 257.685L22.2463 260.644V254.874L27.3079 252.062V257.685Z" fill="#8CB9FF"/>
<path d="M22.2462 260.644L17.3335 257.685V252.062L22.2462 254.874V260.644Z" fill="#C5DBFF"/>
<path d="M22.2462 254.872L17.3335 252.061L22.2462 249.102L27.3078 252.061L22.2462 254.872Z" fill="#70B1FF"/>
<path opacity="0.1" d="M9.29461 260.05L2 255.907L9.29461 251.764L16.4404 255.907L9.29461 260.05Z" fill="#1E232C"/>
<path d="M9.29452 256.945L8.25244 256.353V246.439L9.29452 247.031V256.945Z" fill="#70B1FF"/>
<path d="M10.3368 256.353L9.29468 256.945V247.031L10.3368 246.439V256.353Z" fill="#8CB9FF"/>
<path d="M14.2074 250.579L9.29468 253.39V247.768L14.2074 244.809V250.579Z" fill="#8CB9FF"/>
<path d="M9.29474 253.39L4.23315 250.579V244.809L9.29474 247.768V253.39Z" fill="#C5DBFF"/>
<path d="M9.29474 247.771L4.23315 244.811L9.29474 242L14.2074 244.811L9.29474 247.771Z" fill="#70B1FF"/>
<path d="M190.783 83.4172C190.783 83.4172 185.275 81.1977 182.298 83.4172C182.298 83.4172 187.955 82.5294 191.23 84.7488C191.23 84.7488 193.91 80.7538 198.078 80.6059C198.078 80.6059 194.654 79.1263 190.783 83.4172Z" fill="#8CB9FF"/>
<path d="M188.55 71.5807C188.55 71.5807 184.233 69.9531 182 71.8766C182 71.8766 186.466 70.9888 188.997 72.6164C188.997 72.6164 190.932 69.3612 194.207 69.2133C194.058 69.0653 191.379 68.1776 188.55 71.5807Z" fill="#8CB9FF"/>
<path d="M202.842 76.0173C202.842 76.0173 197.929 73.6499 195.101 75.5734C195.101 75.5734 200.46 75.1295 203.14 77.2009C203.14 77.2009 205.819 73.6499 209.69 73.7979C209.69 73.6499 206.713 72.3182 202.842 76.0173Z" fill="#8CB9FF"/>
<path d="M601.783 74.4172C601.783 74.4172 596.275 72.1977 593.298 74.4172C593.298 74.4172 598.955 73.5294 602.23 75.7488C602.23 75.7488 604.91 71.7538 609.078 71.6059C609.078 71.6059 605.654 70.1263 601.783 74.4172Z" fill="#8CB9FF"/>
<path d="M599.55 62.5807C599.55 62.5807 595.233 60.9531 593 62.8766C593 62.8766 597.466 61.9888 599.997 63.6164C599.997 63.6164 601.932 60.3612 605.207 60.2133C605.058 60.0653 602.379 59.1776 599.55 62.5807Z" fill="#8CB9FF"/>
<path d="M613.842 67.0173C613.842 67.0173 608.929 64.6499 606.101 66.5734C606.101 66.5734 611.46 66.1295 614.14 68.2009C614.14 68.2009 616.819 64.6499 620.69 64.7979C620.69 64.6499 617.713 63.3182 613.842 67.0173Z" fill="#8CB9FF"/>
<path d="M28.7834 152.417C28.7834 152.417 23.2752 150.198 20.2979 152.417C20.2979 152.417 25.9549 151.529 29.23 153.749C29.23 153.749 31.9097 149.754 36.078 149.606C36.078 149.606 32.654 148.126 28.7834 152.417Z" fill="#8CB9FF"/>
<path d="M26.5502 140.581C26.5502 140.581 22.233 138.953 20 140.877C20 140.877 24.466 139.989 26.9968 141.616C26.9968 141.616 28.9321 138.361 32.2072 138.213C32.0584 138.065 29.3787 137.178 26.5502 140.581Z" fill="#8CB9FF"/>
<path d="M40.8421 145.017C40.8421 145.017 35.9294 142.65 33.1008 144.573C33.1008 144.573 38.4601 144.129 41.1398 146.201C41.1398 146.201 43.8195 142.65 47.6901 142.798C47.6901 142.65 44.7127 141.318 40.8421 145.017Z" fill="#8CB9FF"/>
<path opacity="0.1" d="M366.635 199.832L359.49 195.689L366.635 191.546L373.93 195.689L366.635 199.832Z" fill="#1E232C"/>
<path d="M366.636 196.728L365.594 196.136V186.223L366.636 186.815V196.728Z" fill="#70B1FF"/>
<path d="M367.678 196.136L366.636 196.728V186.815L367.678 186.223V196.136Z" fill="#8CB9FF"/>
<path d="M371.697 190.366L366.635 193.325V187.554L371.697 184.743V190.366Z" fill="#8CB9FF"/>
<path d="M366.635 193.325L361.723 190.366V184.743L366.635 187.554V193.325Z" fill="#C5DBFF"/>
<path d="M366.635 187.553L361.723 184.741L366.635 181.782L371.697 184.741L366.635 187.553Z" fill="#70B1FF"/>
<path opacity="0.1" d="M353.684 192.731L346.389 188.588L353.684 184.445L360.83 188.588L353.684 192.731Z" fill="#1E232C"/>
<path d="M353.684 189.624L352.642 189.033V179.119L353.684 179.711V189.624Z" fill="#70B1FF"/>
<path d="M354.726 189.033L353.684 189.624V179.711L354.726 179.119V189.033Z" fill="#8CB9FF"/>
<path d="M358.597 183.26L353.684 186.071V180.449L358.597 177.489V183.26Z" fill="#8CB9FF"/>
<path d="M353.684 186.071L348.622 183.26V177.489L353.684 180.449V186.071Z" fill="#C5DBFF"/>
<path d="M353.684 180.451L348.622 177.492L353.684 174.681L358.597 177.492L353.684 180.451Z" fill="#70B1FF"/>
<path d="M604.318 208.199V239.863L604.764 239.567V207.903C605.062 207.607 605.36 207.163 605.36 206.868C605.36 206.424 605.062 206.276 604.615 206.424C604.169 206.72 603.871 207.163 603.871 207.755C603.871 208.051 604.02 208.199 604.318 208.199Z" fill="#8CB9FF"/>
<path d="M437.497 169.06L437.944 169.356V129.258C438.242 129.258 438.539 129.11 438.539 128.814C438.539 128.37 438.242 127.778 437.795 127.482C437.349 127.186 437.051 127.482 437.051 127.926C437.051 128.37 437.349 128.814 437.646 129.11V169.06H437.497Z" fill="#8CB9FF"/>
<path d="M471.797 261.176L472.392 261.472V223.002C472.839 223.15 472.988 222.854 472.988 222.41C472.988 221.818 472.541 221.078 472.094 220.782C471.648 220.486 471.201 220.782 471.201 221.374C471.201 221.818 471.499 222.41 471.797 222.706V261.176Z" fill="#8CB9FF"/>
<path d="M551.851 73.5275L552.298 73.8235V56.5119C552.596 56.5119 552.893 56.3639 552.893 56.068C552.893 55.6241 552.596 55.0322 552.149 54.7363C551.703 54.4404 551.405 54.7363 551.405 55.1802C551.405 55.6241 551.703 56.068 552 56.3639V73.5275H551.851Z" fill="#8CB9FF"/>
<path d="M232.138 175.12L232.584 175.416V149.768C232.882 149.768 233.18 149.62 233.18 149.324C233.18 148.88 232.882 148.288 232.436 147.992C231.989 147.696 231.691 147.992 231.691 148.436C231.691 148.88 231.989 149.324 232.287 149.62V175.12H232.138Z" fill="#8CB9FF"/>
<path d="M126.02 68.5431L126.467 68.8391V51.5275C126.764 51.5275 127.062 51.3795 127.062 51.0836C127.062 50.6397 126.764 50.0479 126.318 49.7519C125.871 49.456 125.573 49.7519 125.573 50.1958C125.573 50.6397 125.871 51.0836 126.169 51.3795V68.5431H126.02Z" fill="#8CB9FF"/>
<path d="M165.038 253.105V293.351L165.485 293.203V252.809C165.783 252.513 166.08 252.069 166.08 251.626C166.08 251.182 165.783 250.886 165.336 251.182C164.89 251.478 164.592 252.069 164.592 252.513C164.592 252.957 164.741 253.253 165.038 253.105Z" fill="#8CB9FF"/>
<path d="M690.987 166.351L691.433 166.647V125.513C691.731 125.513 692.029 125.365 692.029 124.921C692.029 124.478 691.731 123.886 691.285 123.59C690.838 123.294 690.54 123.59 690.54 124.034C690.54 124.478 690.838 124.921 691.136 125.217V166.351H690.987Z" fill="#8CB9FF"/>
<g clip-path="url(#clip1_395_222134)">
<path d="M692.995 104.389L695.677 119.022C695.773 119.548 695.466 119.82 695.053 119.574L687.725 115.215C687.312 114.969 687.012 114.336 687.116 113.929L690.01 102.613L689.789 102.481C689.087 102.063 688.523 101.063 688.53 100.246L688.563 96.2573C688.569 95.4403 689.144 95.1167 689.846 95.5344L690.067 95.6661L693.052 97.4421L693.274 97.5738C693.976 97.9915 694.54 98.9923 694.533 99.8092L694.5 103.798C694.493 104.615 693.919 104.938 693.217 104.52L692.995 104.389Z" fill="#8CB9FF"/>
<path d="M697.678 107.416C698.158 107.146 698.54 106.713 698.803 106.144C699.066 105.575 699.205 104.879 699.212 104.097C699.218 103.315 699.092 102.462 698.841 101.587C698.59 100.711 698.218 99.8306 697.747 98.995" stroke="#8CB9FF" stroke-width="2.21877" stroke-linecap="round"/>
<path d="M685.324 100.065C684.853 99.2296 684.482 98.3489 684.23 97.4735C683.979 96.5981 683.853 95.745 683.86 94.9631C683.866 94.1812 684.005 93.4856 684.268 92.9162C684.531 92.3468 684.913 91.9147 685.393 91.6445" stroke="#8CB9FF" stroke-width="2.21877" stroke-linecap="round"/>
<path d="M700.366 112.187C701.206 111.714 701.875 110.958 702.335 109.962C702.796 108.965 703.039 107.748 703.05 106.38C703.061 105.011 702.84 103.518 702.401 101.986C701.961 100.454 701.311 98.9133 700.487 97.451" stroke="#8CB9FF" stroke-width="2.21877" stroke-linecap="round"/>
<path d="M682.584 101.608C681.76 100.146 681.11 98.605 680.67 97.073C680.231 95.541 680.01 94.0482 680.021 92.6798C680.033 91.3114 680.275 90.0943 680.736 89.0978C681.196 88.1013 681.865 87.3451 682.705 86.8722" stroke="#8CB9FF" stroke-width="2.21877" stroke-linecap="round"/>
</g>
<path fill-rule="evenodd" clip-rule="evenodd" d="M473.508 198.574C473.16 198.084 472.696 197.807 472.343 197.881L464.359 199.552C464.081 199.61 463.913 199.878 463.91 200.269L463.813 212.08C463.808 212.738 464.262 213.543 464.827 213.88L467.897 215.706C468.462 216.043 468.925 215.782 468.93 215.125L468.984 208.575C468.99 207.917 469.452 207.656 470.017 207.993L475.647 211.342C476.212 211.678 476.666 212.484 476.66 213.142L476.606 219.691C476.601 220.349 477.055 221.155 477.62 221.491L480.691 223.318C481.256 223.654 481.718 223.394 481.724 222.736L481.821 210.924C481.824 210.534 481.662 210.07 481.388 209.683L473.508 198.574Z" fill="#8CB9FF"/>
<path d="M233.138 130.881C235.289 132.16 237.049 131.169 237.069 128.666C237.09 126.164 235.363 123.098 233.212 121.819C231.062 120.539 229.301 121.531 229.281 124.033C229.26 126.535 230.987 129.601 233.138 130.881Z" fill="#8CB9FF"/>
<path d="M225.275 135.309C225.303 131.973 227.65 130.651 230.517 132.357L235.709 135.446C238.577 137.152 240.879 141.24 240.852 144.576L240.839 146.087C240.833 146.921 240.246 147.251 239.529 146.825L226.549 139.102C225.832 138.676 225.256 137.654 225.263 136.82L225.275 135.309Z" fill="#8CB9FF"/>
<g clip-path="url(#clip2_395_222134)">
<path fill-rule="evenodd" clip-rule="evenodd" d="M158.312 223.833C157.595 223.407 157.008 223.737 157.001 224.571L156.892 237.862C156.885 238.696 157.461 239.718 158.178 240.145L173.105 249.026C173.822 249.452 174.409 249.122 174.416 248.288L174.525 234.997C174.532 234.163 173.956 233.141 173.239 232.714L158.312 223.833ZM162.814 231.52C162.819 230.895 162.388 230.128 161.85 229.808C161.312 229.489 160.872 229.736 160.867 230.362C160.855 231.864 161.356 233.61 162.26 235.215C163.164 236.82 164.397 238.154 165.688 238.922C166.979 239.69 168.222 239.83 169.144 239.311C170.065 238.791 170.59 237.656 170.602 236.154C170.607 235.528 170.176 234.762 169.638 234.442C169.1 234.122 168.66 234.37 168.655 234.995C168.648 235.897 168.333 236.578 167.78 236.889C167.227 237.201 166.481 237.117 165.707 236.656C164.932 236.195 164.192 235.395 163.65 234.432C163.107 233.469 162.807 232.422 162.814 231.52Z" fill="#8CB9FF"/>
<path d="M169.675 229.911C169.685 228.709 169.284 227.313 168.561 226.029C167.837 224.744 166.851 223.678 165.818 223.063C164.785 222.449 163.791 222.337 163.054 222.752C162.316 223.167 161.897 224.076 161.887 225.277" stroke="#8CB9FF" stroke-width="2.26557" stroke-linecap="round" stroke-linejoin="round"/>
</g>
<g clip-path="url(#clip3_395_222134)">
<path d="M552.494 30.3955L548.745 28.1646L548.751 27.3255C548.758 26.4913 548.183 25.4694 547.466 25.0429L546.023 24.1848C545.307 23.7583 544.72 24.0888 544.713 24.9229L544.564 43.0469C544.558 43.881 545.133 44.903 545.85 45.3295L547.292 46.1875C548.009 46.614 548.596 46.2836 548.603 45.4495L548.614 44.023L552.364 46.254C553.081 46.6805 553.668 46.35 553.675 45.5159L553.698 42.7293L561.486 47.3628C562.203 47.7893 562.789 47.4588 562.796 46.6247L562.831 42.4117C562.838 41.5775 562.262 40.5556 561.545 40.1291L553.757 35.4956L553.78 32.6781C553.787 31.8439 553.211 30.822 552.494 30.3955Z" fill="#8CB9FF"/>
</g>
<g clip-path="url(#clip4_395_222134)">
<g clip-path="url(#clip5_395_222134)">
<path fill-rule="evenodd" clip-rule="evenodd" d="M595.835 186.101L595.804 189.897C595.801 190.284 595.666 190.577 595.428 190.711C594.439 191.268 594.424 193.117 595.395 194.84L597.122 197.907C598.126 199.69 599.77 200.668 600.794 200.092L602.881 198.916C603.127 198.777 603.458 198.815 603.802 199.02L608.262 201.673C609.051 202.142 609.696 201.778 609.704 200.861C609.707 200.402 610.03 200.22 610.424 200.455C611.213 200.924 611.858 200.561 611.866 199.643C611.87 199.184 612.192 199.003 612.587 199.237C613.375 199.706 614.021 199.343 614.028 198.425L614.04 196.97L605.027 191.608C604.848 191.501 604.701 191.584 604.7 191.792L604.693 192.606C604.681 194.065 603.654 194.644 602.4 193.897L600.314 192.657C599.06 191.91 598.053 190.122 598.065 188.662L598.103 183.982L596.181 185.286C595.962 185.435 595.839 185.726 595.835 186.101ZM600.078 181.762L600.012 189.82C600.01 190.029 600.154 190.284 600.333 190.391L602.418 191.632C602.598 191.738 602.744 191.656 602.746 191.447L602.753 190.634C602.765 189.174 603.791 188.596 605.046 189.342L612.259 193.634L613.304 193.045C614.327 192.469 614.343 190.556 613.339 188.774L611.672 185.814C610.668 184.031 609.024 183.053 608 183.63L606.994 184.197C606.748 184.335 606.417 184.298 606.073 184.093L601.935 181.631C601.148 181.163 600.456 181.248 600.078 181.762Z" fill="#8CB9FF"/>
</g>
</g>
<path d="M123.36 28.888L124.333 29.4672L124.343 28.3345L124.379 23.8538C124.381 23.6453 124.528 23.5627 124.707 23.6693L127.851 25.5399L128.825 26.1191L128.834 24.9863L128.879 19.4484C128.881 19.2399 129.028 19.1573 129.207 19.2639L134.788 22.5846C134.968 22.6912 135.112 22.9467 135.11 23.1552L134.961 41.2792C134.959 41.4877 134.813 41.5703 134.634 41.4637L122.302 34.1274L119.057 32.1967C118.878 32.0901 118.734 31.8346 118.736 31.6261L118.778 26.5413C118.779 26.3328 118.926 26.2502 119.105 26.3568L123.36 28.888Z" fill="#8CB9FF" stroke="#8CB9FF" stroke-width="2.26557"/>
<g clip-path="url(#clip6_395_222134)">
<path d="M429.017 103.476L432.593 105.604L438.897 109.354L438.836 116.689L438.802 120.849C438.8 121.118 439.079 121.419 439.244 121.326L442.655 119.405C442.901 119.267 443.041 118.964 443.044 118.563L443.096 112.183C443.098 111.973 443.172 111.813 443.301 111.74L444.665 110.972C446.378 110.007 447.354 107.895 447.377 105.101C447.38 104.811 447.179 104.454 446.929 104.306C444.528 102.877 442.216 102.617 440.502 103.582L439.139 104.35C439.009 104.423 438.835 104.404 438.654 104.296L433.171 101.034C432.826 100.829 432.495 100.792 432.249 100.93L428.838 102.851C428.673 102.944 428.786 103.339 429.017 103.476Z" fill="#8CB9FF"/>
<path d="M432.593 105.604L432.583 106.736L432.583 106.736L432.593 105.604ZM429.017 103.476L429.027 102.344L429.027 102.344L429.017 103.476ZM433.171 101.034L433.161 102.167L433.161 102.167L433.171 101.034ZM438.654 104.296L438.644 105.429L438.654 104.296ZM443.096 112.183L444.07 112.763L444.07 112.763L443.096 112.183ZM443.044 118.563L444.017 119.142L444.017 119.142L443.044 118.563ZM438.802 120.849L439.776 121.428L439.776 121.428L438.802 120.849ZM438.836 116.689L437.863 116.109L437.863 116.109L438.836 116.689ZM438.897 109.354L439.87 109.933L439.879 108.8L438.906 108.221L438.897 109.354ZM447.377 105.101L448.351 105.681L448.351 105.681L447.377 105.101ZM446.929 104.306L446.938 103.173L446.938 103.173L446.929 104.306ZM432.602 104.471L429.027 102.344L429.008 104.609L432.583 106.736L432.602 104.471ZM429.52 104.062L432.931 102.141L431.567 99.7196L428.156 101.641L429.52 104.062ZM433.161 102.167L438.644 105.429L438.663 103.163L433.18 99.9011L433.161 102.167ZM439.82 105.561L441.184 104.793L439.82 102.372L438.457 103.14L439.82 105.561ZM443.983 109.762L442.619 110.53L443.983 112.951L445.346 112.183L443.983 109.762ZM442.123 111.604L442.07 117.984L444.017 119.142L444.07 112.763L442.123 111.604ZM441.973 118.194L438.562 120.116L439.925 122.537L443.337 120.615L441.973 118.194ZM439.776 121.428L439.81 117.268L437.863 116.109L437.829 120.27L439.776 121.428ZM432.583 106.736L438.887 110.487L438.906 108.221L432.602 104.471L432.583 106.736ZM437.923 108.775L437.863 116.109L439.81 117.268L439.87 109.933L437.923 108.775ZM438.562 120.116C439.016 119.86 439.782 120.688 439.776 121.428L437.829 120.27C437.818 121.548 439.141 122.979 439.925 122.537L438.562 120.116ZM442.07 117.984C442.069 118.084 442.034 118.16 441.973 118.194L443.337 120.615C443.767 120.373 444.012 119.843 444.017 119.142L442.07 117.984ZM442.619 110.53C442.305 110.707 442.127 111.093 442.123 111.604L444.07 112.763C444.069 112.852 444.038 112.92 443.983 112.951L442.619 110.53ZM446.404 104.522C446.383 107.016 445.512 108.9 443.983 109.762L445.346 112.183C447.245 111.114 448.325 108.775 448.351 105.681L446.404 104.522ZM446.92 105.438C446.632 105.267 446.401 104.857 446.404 104.522L448.351 105.681C448.358 104.764 447.726 103.641 446.938 103.173L446.92 105.438ZM441.184 104.793C442.714 103.931 444.777 104.163 446.92 105.438L446.938 103.173C444.279 101.591 441.719 101.303 439.82 102.372L441.184 104.793ZM438.644 105.429C439.084 105.69 439.507 105.738 439.82 105.561L438.457 103.14C438.512 103.109 438.586 103.117 438.663 103.163L438.644 105.429ZM432.931 102.141C432.992 102.106 433.075 102.115 433.161 102.167L433.18 99.9011C432.577 99.5426 431.997 99.4774 431.567 99.7196L432.931 102.141ZM429.027 102.344C429.663 102.722 429.974 103.806 429.52 104.062L428.156 101.641C427.372 102.083 427.909 103.955 429.008 104.609L429.027 102.344Z" fill="#8CB9FF"/>
<path d="M438.518 111.162C438.902 110.946 438.907 110.228 438.531 109.56C438.154 108.891 437.538 108.524 437.154 108.741L438.518 111.162ZM432.381 111.429C431.997 111.645 431.992 112.362 432.368 113.031C432.745 113.699 433.361 114.066 433.745 113.85L432.381 111.429ZM437.154 108.741L432.381 111.429L433.745 113.85L438.518 111.162L437.154 108.741Z" fill="#8CB9FF"/>
</g>
</g>
<defs>
<linearGradient id="paint0_linear_395_222134" x1="389.952" y1="213.649" x2="106.935" y2="194.878" gradientUnits="userSpaceOnUse">
<stop stop-color="#457CFF"/>
<stop offset="1" stop-color="#457CFF" stop-opacity="0"/>
</linearGradient>
<linearGradient id="paint1_linear_395_222134" x1="246.185" y1="319.108" x2="-36.8321" y2="300.337" gradientUnits="userSpaceOnUse">
<stop stop-color="#457CFF"/>
<stop offset="1" stop-color="#457CFF" stop-opacity="0"/>
</linearGradient>
<linearGradient id="paint2_linear_395_222134" x1="340.925" y1="378.618" x2="721.224" y2="157.261" gradientUnits="userSpaceOnUse">
<stop offset="0.71875" stop-color="#457CFF"/>
<stop offset="0.916667" stop-color="#457CFF" stop-opacity="0"/>
</linearGradient>
<linearGradient id="paint3_linear_395_222134" x1="307" y1="190" x2="403" y2="140.5" gradientUnits="userSpaceOnUse">
<stop stop-color="#3F77FF"/>
<stop offset="1" stop-color="#3F77FF" stop-opacity="0"/>
</linearGradient>
<linearGradient id="paint4_linear_395_222134" x1="502.097" y1="173.904" x2="577.647" y2="173.904" gradientUnits="userSpaceOnUse">
<stop stop-color="#A8CBFF"/>
<stop offset="1" stop-color="#6398FF"/>
</linearGradient>
<linearGradient id="paint5_linear_395_222134" x1="512.182" y1="116.607" x2="572.338" y2="116.607" gradientUnits="userSpaceOnUse">
<stop stop-color="#A8CBFF"/>
<stop offset="1" stop-color="#6398FF"/>
</linearGradient>
<linearGradient id="paint6_linear_395_222134" x1="675.644" y1="218.702" x2="698.379" y2="218.702" gradientUnits="userSpaceOnUse">
<stop stop-color="#A8CBFF"/>
<stop offset="1" stop-color="#6398FF"/>
</linearGradient>
<clipPath id="clip0_395_222134">
<rect width="720" height="260" fill="white"/>
</clipPath>
<clipPath id="clip1_395_222134">
<rect width="35.7273" height="35.7273" fill="white" transform="matrix(0.859406 0.511293 -0.00820296 0.999966 676.293 77)"/>
</clipPath>
<clipPath id="clip2_395_222134">
<rect width="36.2492" height="36.2492" fill="white" transform="matrix(0.859406 0.511293 -0.00820296 0.999966 150.297 207)"/>
</clipPath>
<clipPath id="clip3_395_222134">
<rect width="36.2492" height="36.2492" fill="white" transform="matrix(0.859406 0.511293 -0.00820296 0.999966 538.297 12)"/>
</clipPath>
<clipPath id="clip4_395_222134">
<rect width="36.2492" height="36.2492" fill="white" transform="matrix(0.859406 0.511293 -0.00820296 0.999966 589.862 165)"/>
</clipPath>
<clipPath id="clip5_395_222134">
<rect width="33.2284" height="33.2284" fill="white" transform="matrix(0.859406 0.511293 -0.00820296 0.999966 591.147 167.283)"/>
</clipPath>
<clipPath id="clip6_395_222134">
<rect width="36.2492" height="36.2492" fill="white" transform="matrix(0.859406 0.511293 -0.00820296 0.999966 423.197 81.8633)"/>
</clipPath>
</defs>
</svg>
