<svg width="248" height="40" viewBox="0 0 248 40" fill="none" xmlns="http://www.w3.org/2000/svg">
<path d="M48.9727 25.6683V14.6661C48.9727 11.3821 50.5933 9.73926 53.8347 9.73926H61.9482L63.708 11.1299V13.0946H53.9242C53.0489 13.0946 52.6117 13.5278 52.6117 14.394V25.9406C52.6117 26.8073 53.0489 27.2407 53.9242 27.2407H63.708V29.2047L61.9482 30.5955H53.8347C50.5932 30.5954 48.9727 28.9532 48.9727 25.6683Z" fill="white"/>
<path d="M67.3145 25.8194V14.7266H70.8045V26.1221C70.8045 27.0492 71.2617 27.5124 72.1765 27.5124H77.0981V14.7266H80.5881V30.5955H72.0275C68.8851 30.5955 67.3145 29.0041 67.3145 25.8194Z" fill="white"/>
<path d="M84.4971 29.4167V27.5121H91.3873C92.302 27.5121 92.7595 27.0188 92.7595 26.0314C92.7595 25.0035 92.3817 24.4197 91.6262 24.2783L88.2851 23.734C85.7596 23.291 84.4971 21.8401 84.4971 19.3813C84.4971 16.2787 86.0677 14.7266 89.2098 14.7266H93.9527L95.5335 15.9054V17.8098H89.3591C88.4241 17.8098 87.9571 18.3039 87.9571 19.2907C87.9571 20.2785 88.3548 20.8428 89.1503 20.9833L92.4912 21.5276C94.9967 21.9507 96.2496 23.4121 96.2496 25.9103C96.2496 29.034 94.6687 30.5955 91.5067 30.5955H86.0779L84.4971 29.4167Z" fill="white"/>
<path d="M100.008 25.8193V9.73926H103.498V14.7264H108.837V17.8097H103.498V26.122C103.498 27.049 103.955 27.5123 104.87 27.5123H109.135V29.4167L107.555 30.5955H104.721C101.578 30.5954 100.008 29.0039 100.008 25.8193Z" fill="white"/>
<path d="M112.207 25.8194V19.5026C112.207 16.3185 113.778 14.7266 116.92 14.7266H121.096C124.218 14.7266 125.779 16.3185 125.779 19.5026V25.8194C125.779 29.0041 124.218 30.5955 121.096 30.5955H116.92C113.778 30.5955 112.207 29.0041 112.207 25.8194ZM115.697 26.1221C115.697 27.0492 116.154 27.5122 117.069 27.5122H120.917C121.831 27.5122 122.289 27.0492 122.289 26.1221V19.2C122.289 18.2735 121.831 17.8098 120.917 17.8098H117.069C116.154 17.8098 115.697 18.2735 115.697 19.2V26.1221Z" fill="white"/>
<path d="M130.015 30.5955V14.7266H147.852C150.974 14.7266 152.535 16.3185 152.535 19.5026V30.5955H149.045V19.2C149.045 18.2735 148.588 17.81 147.673 17.81H143.02V30.5955H139.53V17.81H133.504V30.5955H130.015Z" fill="white"/>
<path d="M156.65 25.8194V19.5025C156.65 16.3185 158.221 14.7266 161.363 14.7266H165.241C168.363 14.7266 169.924 16.3185 169.924 19.5025V23.9758H160.14V26.1219C160.14 27.049 160.598 27.5121 161.513 27.5121H169.328V29.4167L167.747 30.5955H161.363C158.221 30.5955 156.65 29.0041 156.65 25.8194ZM160.14 21.2257H166.434V19.2001C166.434 18.2735 165.976 17.81 165.062 17.81H161.513C160.598 17.81 160.14 18.2735 160.14 19.2001V21.2257Z" fill="white"/>
<path d="M174.041 30.5955V16.6914C174.757 15.3815 176.129 14.7266 178.157 14.7266H181.289L182.87 15.9054V17.81H178.963C178.287 17.81 177.809 17.9815 177.531 18.3238V30.5955H174.041Z" fill="white"/>
<path d="M193.039 25.6683V14.6661C193.039 11.3821 194.66 9.73926 197.901 9.73926H206.015L207.774 11.1299V13.0946H197.991C197.115 13.0946 196.678 13.5278 196.678 14.394V25.9406C196.678 26.8073 197.115 27.2407 197.991 27.2407H207.774V29.2047L206.015 30.5955H197.901C194.66 30.5954 193.039 28.9532 193.039 25.6683Z" fill="white"/>
<path d="M211.414 8.37891H215.083V11.9761H211.414V8.37891ZM211.503 14.7263H214.993V30.5952H211.503V14.7263Z" fill="white"/>
<path d="M219.348 25.8193V9.73926H222.838V14.7264H228.177V17.8097H222.838V26.122C222.838 27.049 223.295 27.5123 224.21 27.5123H228.475V29.4167L226.894 30.5955H224.061C220.918 30.5954 219.348 29.0039 219.348 25.8193Z" fill="white"/>
<path d="M230.117 15.2709L230.475 14.7266H233.488L237.425 27.5122H237.873L241.81 14.7266H244.822L245.181 15.2709L238.35 36.6409H235.337L234.979 36.0968L236.858 30.5955H235.039L230.117 15.2709Z" fill="white"/>
<path d="M0 30.216V8.97665C0 2.99059 2.92856 0 8.79462 0H24.3766L27.2412 2.27426V5.22792H8.85393C6.72374 5.22792 5.65633 6.28639 5.65633 8.40804V30.7844C5.65633 32.9061 6.72374 33.9645 8.85393 33.9645H27.2412V36.918L24.3766 39.1923H8.79462C2.92856 39.1925 0 36.2019 0 30.216Z" fill="white"/>
<path d="M37.4307 14.9709H12.7281C11.3034 14.9709 10.1484 13.8007 10.1484 12.357C10.1484 10.9133 11.3034 9.74316 12.7281 9.74316H37.4307C38.8554 9.74316 40.0102 10.9133 40.0102 12.357C40.0102 13.8007 38.8554 14.9709 37.4307 14.9709Z" fill="white"/>
<path d="M37.6037 22.2102H27.982C26.5573 22.2102 25.4023 21.0398 25.4023 19.5965C25.4023 18.1526 26.5573 16.9824 27.982 16.9824H37.6037C39.0284 16.9824 40.1832 18.1528 40.1832 19.5965C40.1832 21.04 39.0284 22.2102 37.6037 22.2102Z" fill="url(#paint0_linear_285_237407)"/>
<path d="M27.6975 22.2102H12.7281C11.3034 22.2102 10.1484 21.0398 10.1484 19.5965C10.1484 18.1526 11.3034 16.9824 12.7281 16.9824H27.6975C29.1222 16.9824 30.277 18.1528 30.277 19.5965C30.277 21.04 29.1222 22.2102 27.6975 22.2102Z" fill="white"/>
<path d="M37.2984 29.4494H23.9713C22.5466 29.4494 21.3916 28.2791 21.3916 26.8357C21.3916 25.3918 22.5466 24.2217 23.9713 24.2217H37.2984C38.7231 24.2217 39.8779 25.392 39.8779 26.8357C39.8779 28.2791 38.7231 29.4494 37.2984 29.4494Z" fill="url(#paint1_linear_285_237407)"/>
<path d="M23.3814 29.4494H12.7281C11.3034 29.4494 10.1484 28.2791 10.1484 26.8357C10.1484 25.3918 11.3034 24.2217 12.7281 24.2217H23.3814C24.8061 24.2217 25.9609 25.392 25.9609 26.8357C25.9609 28.2791 24.8061 29.4494 23.3814 29.4494Z" fill="white"/>
<defs>
<linearGradient id="paint0_linear_285_237407" x1="40.1085" y1="19.5731" x2="31.7527" y2="19.5731" gradientUnits="userSpaceOnUse">
<stop stop-color="white"/>
<stop offset="0.53529" stop-color="white" stop-opacity="0.29"/>
<stop offset="1" stop-color="white" stop-opacity="0"/>
</linearGradient>
<linearGradient id="paint1_linear_285_237407" x1="39.7743" y1="27.0329" x2="27.742" y2="27.0329" gradientUnits="userSpaceOnUse">
<stop stop-color="white"/>
<stop offset="0.614583" stop-color="white" stop-opacity="0.19"/>
<stop offset="0.984375" stop-color="white" stop-opacity="0"/>
</linearGradient>
</defs>
</svg>
